<?xml version="1.0" standalone="no"?>
<!DOCTYPE svg PUBLIC "-//W3C//DTD SVG 20010904//EN"
 "http://www.w3.org/TR/2001/REC-SVG-20010904/DTD/svg10.dtd">
<svg version="1.0" xmlns="http://www.w3.org/2000/svg"
 width="1280.000000pt" height="1280.000000pt" viewBox="0 0 1280.000000 1280.000000"
 preserveAspectRatio="xMidYMid meet">
<g transform="translate(0.000000,1280.000000) scale(0.100000,-0.100000)"
fill="#000000" stroke="none">
<path d="M2755 10479 c-159 -24 -290 -88 -405 -195 -171 -162 -249 -353 -237
-584 14 -277 173 -516 422 -635 113 -54 183 -69 325 -69 142 0 210 15 329 71
l75 36 34 -39 c19 -21 45 -55 59 -76 23 -34 24 -38 9 -67 -23 -43 -20 -93 8
-134 69 -101 917 -1134 940 -1145 15 -7 46 -12 70 -12 36 0 55 8 103 44 102
75 108 135 24 266 -68 108 -845 1057 -885 1081 -21 13 -50 19 -91 19 l-60 0
-52 71 -53 71 59 71 c32 40 76 102 96 139 l37 68 2326 2 2327 3 45 25 c72 40
90 86 90 235 0 95 -4 128 -19 160 -21 46 -54 79 -94 94 -20 8 -727 11 -2340
11 -1272 0 -2317 4 -2324 8 -7 4 -20 26 -29 47 -30 73 -104 173 -179 243 -86
80 -218 152 -325 176 -87 20 -212 27 -285 15z m253 -144 c95 -23 193 -77 271
-151 76 -71 136 -156 128 -179 -5 -12 -50 -15 -269 -17 -244 -3 -266 -5 -303
-24 -25 -13 -47 -36 -62 -64 -20 -38 -23 -57 -23 -169 0 -112 3 -132 23 -171
27 -54 61 -80 118 -91 24 -4 149 -8 277 -9 179 0 232 -3 232 -12 0 -28 -103
-150 -162 -194 -119 -88 -237 -128 -378 -128 -108 0 -174 16 -280 67 -263 128
-399 445 -311 727 61 194 227 354 426 411 76 22 228 24 313 4z"/>
<path d="M2625 10141 c-103 -26 -176 -115 -161 -196 9 -49 50 -75 117 -75 95
0 176 58 200 144 23 83 -61 151 -156 127z"/>
<path d="M5620 9334 c-12 -36 -27 -67 -34 -69 -6 -2 -68 -6 -137 -8 l-126 -5
-34 69 c-18 38 -37 69 -41 69 -5 0 -40 -16 -78 -35 l-69 -35 34 -72 35 -72
-64 -61 c-35 -33 -78 -81 -95 -107 -18 -27 -36 -48 -41 -48 -5 0 -33 9 -61 20
-29 12 -59 20 -67 18 -13 -3 -62 -115 -62 -143 0 -6 27 -20 60 -30 33 -10 64
-23 69 -29 7 -9 16 -178 12 -233 -1 -7 -30 -26 -66 -42 -36 -16 -65 -32 -65
-36 0 -8 70 -145 74 -145 2 0 28 11 58 25 29 14 58 25 64 25 6 0 31 -25 54
-56 24 -30 74 -78 112 -106 38 -28 67 -56 65 -62 -24 -63 -39 -128 -31 -135
14 -13 135 -51 145 -46 4 3 17 34 29 69 l21 64 117 5 c64 4 131 9 147 12 29 6
32 4 60 -54 16 -34 30 -61 31 -61 1 0 31 13 66 30 34 16 71 30 81 30 35 0 16
-29 -35 -54 -29 -14 -60 -31 -69 -37 -13 -10 -23 -7 -53 16 l-37 28 -32 -31
-31 -32 33 -34 34 -35 -21 -66 c-12 -36 -22 -72 -22 -80 0 -14 -14 -20 -65
-27 -22 -4 -30 -27 -21 -64 6 -21 12 -24 49 -24 42 0 42 0 74 -64 l31 -64 -24
-33 -24 -33 27 -28 c33 -34 40 -35 65 -2 23 29 24 29 131 -9 74 -25 87 -37 87
-79 0 -30 7 -32 59 -22 29 6 31 9 31 50 0 41 2 44 43 63 23 11 56 29 73 40
l31 21 27 -21 c31 -24 48 -20 72 16 16 25 16 27 -11 55 -27 28 -27 29 -12 77
8 26 18 60 21 75 6 28 44 47 65 33 7 -4 11 -74 11 -199 l0 -194 -97 -22 c-162
-37 -304 -95 -457 -187 l-58 -36 -154 154 -154 154 -162 -162 -163 -163 148
-148 c81 -82 147 -151 147 -155 0 -3 -24 -44 -54 -89 -94 -145 -160 -299 -197
-456 -11 -48 -22 -95 -25 -104 -5 -16 -23 -18 -205 -18 l-199 0 0 -230 0 -230
199 0 c182 0 200 -2 205 -17 3 -10 14 -57 25 -105 25 -107 79 -248 132 -346
21 -41 39 -79 39 -85 0 -7 -61 -73 -135 -147 -74 -74 -135 -139 -135 -145 0
-13 302 -315 315 -315 5 0 66 57 136 126 82 81 132 123 140 118 7 -4 45 -31
85 -59 85 -61 259 -152 359 -188 39 -13 114 -35 167 -47 l98 -22 2 -202 3
-201 225 0 225 0 5 197 c3 108 8 199 12 203 3 4 38 13 78 21 161 34 388 131
513 220 26 19 55 34 65 34 9 0 71 -54 137 -120 66 -66 124 -120 130 -120 13 0
315 302 315 315 0 6 -56 66 -125 135 -69 69 -125 130 -125 136 0 7 23 50 50
97 65 111 126 263 160 401 l27 111 201 3 202 2 0 230 0 230 -202 2 -202 3 -21
90 c-50 214 -127 383 -246 546 -27 37 -49 73 -49 80 0 8 62 76 137 151 l138
138 -163 162 -162 163 -155 -155 -154 -154 -88 46 c-120 63 -218 101 -348 133
-60 15 -113 33 -117 39 -4 6 -8 98 -8 204 l0 192 -219 0 c-237 0 -231 -2 -231
56 0 22 -4 24 -45 24 -44 0 -45 0 -74 58 -16 32 -36 64 -45 71 -22 18 -20 40
5 67 25 27 20 46 -16 70 -26 17 -27 16 -60 -16 -34 -33 -34 -33 -82 -21 -80
21 -93 28 -93 55 0 56 -6 59 -98 40 -18 -4 -26 3 -44 41 l-22 45 65 68 c35 37
75 83 89 102 l26 33 64 -21 c35 -12 67 -22 71 -22 8 0 64 149 58 153 -2 2 -33
14 -69 28 l-65 25 -6 114 c-4 63 -12 132 -18 153 -7 20 -9 42 -6 47 4 6 33 24
66 40 32 17 59 35 59 40 0 17 -64 140 -72 140 -5 0 -35 -13 -68 -30 -69 -35
-91 -37 -107 -11 -6 10 -44 42 -82 71 -39 29 -71 56 -71 59 0 4 10 35 21 70
12 35 18 66 13 70 -9 8 -131 51 -145 51 -4 0 -17 -30 -29 -66z m-59 -234 c83
-16 169 -63 228 -125 157 -165 153 -414 -8 -576 -240 -240 -640 -110 -703 228
-30 163 65 353 216 430 93 48 173 61 267 43z m519 -1151 c161 -72 198 -265 78
-395 -52 -56 -108 -78 -192 -72 -86 5 -149 43 -193 118 -28 47 -33 63 -33 120
0 78 22 132 75 183 68 66 179 85 265 46z m721 -1054 c305 -53 575 -242 733
-513 40 -68 44 -88 19 -96 -122 -37 -709 -196 -724 -196 -12 0 -33 8 -47 18
-56 39 -142 55 -214 42 l-53 -10 -267 267 c-148 147 -268 271 -268 276 0 12
84 68 163 109 200 104 440 142 658 103z m-466 -1032 c0 -79 3 -94 30 -142 16
-29 46 -68 67 -86 l38 -32 0 -386 0 -387 -34 0 c-19 0 -72 12 -118 26 -546
173 -851 722 -708 1279 23 91 116 286 156 329 l27 28 271 -271 271 -271 0 -87z
m1325 151 c15 -38 12 -262 -4 -346 -64 -334 -283 -615 -593 -760 -85 -40 -251
-88 -304 -88 l-29 0 0 379 0 379 49 32 c64 41 101 90 127 170 l21 65 344 96
c189 54 352 97 362 98 10 1 22 -10 27 -25z m-964 -78 c27 -27 34 -42 34 -74 0
-82 -85 -135 -155 -97 -102 54 -63 203 54 205 25 0 42 -9 67 -34z"/>
<path d="M5410 8987 c-247 -70 -308 -392 -103 -541 159 -116 379 -57 461 122
66 144 0 327 -141 397 -63 30 -155 40 -217 22z m156 -221 c28 -28 34 -42 34
-76 0 -34 -6 -48 -34 -76 -28 -28 -42 -34 -76 -34 -34 0 -48 6 -76 34 -29 29
-34 41 -34 79 0 37 5 51 31 76 25 26 39 31 76 31 38 0 50 -5 79 -34z"/>
<path d="M5915 7886 c-73 -33 -109 -94 -103 -176 5 -68 33 -112 88 -140 102
-52 222 1 251 112 22 82 -17 163 -95 199 -48 22 -99 24 -141 5z"/>
<path d="M7807 9286 c-47 -17 -71 -38 -91 -81 -14 -29 -16 -114 -16 -697 l0
-664 23 -44 c16 -33 34 -51 67 -67 l44 -23 978 0 c1070 0 1018 -3 1081 57 15
15 32 43 37 62 14 50 13 1294 0 1343 -14 48 -55 97 -97 114 -48 21 -1970 20
-2026 0z"/>
<path d="M6680 9101 c0 -55 -6 -62 -70 -80 -25 -7 -59 -22 -77 -33 -37 -22
-51 -17 -97 31 l-30 31 -38 -37 c-21 -20 -38 -42 -38 -47 0 -6 16 -27 36 -47
l36 -37 -36 -72 c-20 -40 -36 -80 -36 -89 0 -29 -22 -41 -72 -41 l-48 0 0 -60
0 -60 54 0 53 0 25 -67 c14 -38 28 -75 32 -85 5 -11 -4 -29 -30 -58 l-37 -41
41 -42 42 -41 33 32 c18 18 38 32 45 32 7 0 30 -12 52 -26 21 -14 65 -34 97
-44 l58 -18 3 -56 3 -56 59 0 59 0 3 56 3 57 43 13 c24 7 68 25 97 40 l54 27
37 -33 37 -32 40 40 40 41 -31 36 c-37 42 -37 37 -15 78 9 18 24 57 34 87 l17
55 56 3 56 3 0 59 0 60 -48 0 c-50 0 -72 12 -72 41 0 10 -19 54 -42 99 l-41
81 39 40 38 39 -41 42 -42 42 -44 -41 -45 -42 -59 24 c-32 14 -65 25 -73 25
-28 0 -40 23 -40 72 l0 48 -60 0 -60 0 0 -49z m158 -186 c68 -20 151 -97 183
-167 35 -79 33 -184 -4 -260 -45 -93 -124 -149 -236 -170 -123 -23 -259 50
-318 170 -24 48 -28 69 -27 137 0 99 28 160 105 229 80 72 186 94 297 61z"/>
<path d="M6684 8839 c-51 -12 -118 -68 -145 -122 -17 -32 -20 -54 -17 -107 4
-80 35 -134 100 -177 36 -24 51 -28 118 -28 67 0 82 4 118 28 89 59 126 172
87 272 -23 62 -92 121 -156 134 -28 6 -53 11 -57 10 -4 -1 -25 -5 -48 -10z
m95 -144 c31 -15 54 -65 44 -93 -3 -9 -15 -27 -26 -39 -40 -45 -118 -23 -140
39 -10 27 13 77 42 93 33 18 46 18 80 0z"/>
<path d="M1710 8600 c-13 -8 -5 -29 48 -129 34 -66 62 -126 62 -135 0 -13 -18
-16 -107 -18 l-108 -3 -3 -813 -2 -813 112 3 113 3 3 798 c2 631 5 798 15 795
6 -3 75 -124 153 -271 77 -147 145 -271 150 -276 5 -6 60 71 140 197 l131 207
308 3 308 2 177 -45 c98 -25 184 -45 193 -45 19 0 31 31 16 41 -7 4 -95 28
-196 53 l-183 46 -324 0 -323 0 -108 -170 c-59 -93 -113 -174 -120 -180 -18
-15 -11 -28 -233 395 -104 197 -193 360 -198 362 -5 1 -16 -2 -24 -7z"/>
<path d="M2477 8003 c-4 -3 -7 -300 -7 -660 l0 -653 115 0 115 0 0 660 0 660
-108 0 c-60 0 -112 -3 -115 -7z"/>
<path d="M2910 7350 l0 -660 115 0 115 0 -2 658 -3 657 -112 3 -113 3 0 -661z"/>
<path d="M2040 7090 l0 -401 113 3 112 3 0 395 0 395 -112 3 -113 3 0 -401z"/>
<path d="M9252 7379 c-26 -13 -55 -39 -70 -62 -24 -35 -27 -51 -27 -120 0 -67
-3 -81 -20 -93 -11 -8 -148 -85 -304 -171 l-283 -156 -44 11 c-97 26 -168 10
-221 -51 -29 -33 -53 -90 -53 -127 0 -97 94 -189 193 -190 71 0 130 35 174
103 22 35 26 37 43 25 17 -12 539 -613 555 -639 4 -6 -5 -33 -20 -61 -65 -120
7 -271 137 -285 70 -8 119 11 171 66 l47 50 72 -25 c39 -13 73 -22 75 -20 3 2
-6 7 -19 11 -13 4 -47 16 -75 27 l-53 19 0 50 c0 27 -7 66 -15 86 -8 19 -15
41 -15 47 0 10 251 319 301 370 5 6 26 1 53 -13 25 -12 67 -24 94 -28 l50 -6
176 -317 c97 -174 176 -324 176 -332 0 -9 -12 -24 -27 -33 -16 -10 -40 -30
-55 -46 l-26 -28 -73 24 c-40 14 -74 23 -76 21 -2 -2 25 -14 61 -26 36 -12 69
-26 72 -32 4 -6 7 -41 8 -78 1 -83 33 -137 98 -169 123 -59 263 16 276 148 6
63 -11 110 -54 157 -19 21 -33 41 -32 45 9 22 345 489 356 493 7 3 27 -3 44
-14 128 -78 289 14 289 164 0 60 -10 86 -50 129 -36 40 -70 56 -134 63 l-55 7
-63 138 c-34 77 -64 138 -66 136 -1 -2 24 -64 57 -137 33 -73 60 -136 60 -140
0 -4 -17 -19 -39 -33 -21 -14 -48 -42 -61 -61 -17 -28 -28 -36 -53 -37 -30 -1
-30 -1 -7 -8 22 -6 26 -14 31 -61 4 -30 14 -72 24 -92 l18 -36 -182 -256 -183
-256 -61 7 c-34 3 -68 10 -74 16 -7 5 -87 143 -177 306 -207 375 -189 338
-174 350 7 6 28 23 46 38 19 14 45 44 58 65 16 24 32 38 47 39 17 1 18 2 4 6
-20 5 -37 41 -37 77 0 12 -14 44 -31 69 -17 26 -29 53 -26 60 4 11 352 432
393 477 12 12 20 12 61 -3 27 -9 67 -17 90 -17 41 0 44 -2 68 -47 25 -46 25
-41 1 21 -9 25 -8 30 8 40 74 45 106 98 106 179 0 103 -85 187 -188 187 -59 0
-101 -20 -144 -68 -35 -38 -44 -63 -50 -137 -3 -26 -8 -31 -38 -36 l-35 -6 37
-2 c31 -1 41 -7 63 -38 14 -21 25 -42 25 -46 0 -10 -380 -466 -405 -487 -12
-10 -27 -10 -74 0 -50 10 -65 10 -114 -6 -46 -14 -59 -15 -71 -5 -9 7 -97 114
-196 238 l-181 224 32 36 c17 20 39 56 50 79 l18 44 78 2 78 2 -72 3 c-40 2
-75 9 -80 16 -5 7 -15 31 -21 54 -32 110 -163 164 -270 112z m-56 -300 c39
-44 92 -62 166 -57 l68 5 186 -229 c103 -127 189 -238 191 -248 3 -10 -7 -39
-22 -64 -21 -36 -33 -46 -53 -47 l-27 -1 25 -7 c20 -5 26 -16 32 -51 4 -25 15
-62 24 -82 l17 -37 -146 -174 c-81 -96 -153 -179 -160 -186 -11 -9 -24 -6 -58
14 -52 29 -133 34 -180 9 -17 -8 -37 -13 -44 -10 -15 6 -545 616 -545 628 0 4
21 9 48 9 l47 1 -59 9 c-72 11 -82 19 -90 74 -4 24 -19 61 -33 81 -16 25 -22
43 -17 52 11 17 574 330 595 331 9 1 24 -8 35 -20z"/>
<path d="M8793 6543 c9 -2 25 -2 35 0 9 3 1 5 -18 5 -19 0 -27 -2 -17 -5z"/>
<path d="M8883 6533 c9 -2 25 -2 35 0 9 3 1 5 -18 5 -19 0 -27 -2 -17 -5z"/>
<path d="M8963 6523 c9 -2 25 -2 35 0 9 3 1 5 -18 5 -19 0 -27 -2 -17 -5z"/>
<path d="M9048 6513 c12 -2 30 -2 40 0 9 3 -1 5 -23 4 -22 0 -30 -2 -17 -4z"/>
<path d="M9133 6503 c9 -2 25 -2 35 0 9 3 1 5 -18 5 -19 0 -27 -2 -17 -5z"/>
<path d="M9213 6493 c9 -2 25 -2 35 0 9 3 1 5 -18 5 -19 0 -27 -2 -17 -5z"/>
<path d="M9303 6483 c9 -2 25 -2 35 0 9 3 1 5 -18 5 -19 0 -27 -2 -17 -5z"/>
<path d="M9383 6473 c9 -2 25 -2 35 0 9 3 1 5 -18 5 -19 0 -27 -2 -17 -5z"/>
<path d="M9463 6463 c9 -2 25 -2 35 0 9 3 1 5 -18 5 -19 0 -27 -2 -17 -5z"/>
<path d="M9553 6453 c9 -2 25 -2 35 0 9 3 1 5 -18 5 -19 0 -27 -2 -17 -5z"/>
<path d="M9633 6443 c9 -2 25 -2 35 0 9 3 1 5 -18 5 -19 0 -27 -2 -17 -5z"/>
<path d="M9788 7183 c23 -2 59 -2 80 0 20 2 1 4 -43 4 -44 0 -61 -2 -37 -4z"/>
<path d="M9993 7173 c20 -2 54 -2 75 0 20 2 3 4 -38 4 -41 0 -58 -2 -37 -4z"/>
<path d="M10193 7163 c20 -2 54 -2 75 0 20 2 3 4 -38 4 -41 0 -58 -2 -37 -4z"/>
<path d="M4810 7048 c-359 -84 -749 -231 -1104 -416 -587 -305 -920 -660
-1131 -1206 -61 -159 -103 -306 -170 -601 -67 -300 -103 -440 -155 -601 -68
-215 -65 -259 37 -450 50 -95 57 -115 61 -180 4 -65 2 -79 -26 -136 -16 -35
-67 -113 -113 -175 -46 -62 -149 -213 -228 -336 -79 -123 -186 -277 -238 -343
-106 -133 -141 -193 -150 -259 -11 -84 37 -163 119 -194 15 -6 82 -17 148 -25
178 -22 252 -69 287 -185 17 -55 11 -103 -23 -203 -13 -39 -24 -85 -24 -102 0
-55 38 -114 101 -157 68 -46 74 -67 32 -111 -57 -59 -38 -222 33 -294 19 -18
70 -54 114 -80 95 -54 153 -116 169 -179 17 -68 4 -112 -71 -246 -55 -97 -68
-151 -55 -223 31 -176 201 -289 467 -311 53 -4 169 0 310 10 130 10 262 15
313 11 91 -6 204 -30 222 -47 14 -14 3555 -12 3555 2 0 6 -11 54 -24 107 -104
415 -101 873 8 1298 20 77 36 112 113 235 315 504 545 1043 683 1599 66 266
98 465 125 780 17 194 19 276 7 284 -4 2 -41 -22 -82 -55 -481 -384 -1119
-555 -1735 -464 -118 18 -452 100 -575 142 -304 103 -616 319 -813 563 -135
167 -259 389 -322 574 -40 120 -102 368 -121 491 -23 147 -23 421 0 570 46
299 155 582 322 831 35 53 64 98 64 100 0 8 -47 2 -130 -18z"/>
<path d="M10721 6915 c0 -5 8 -26 19 -45 11 -19 19 -30 19 -25 0 6 -8 26 -19
45 -11 19 -19 31 -19 25z"/>
<path d="M10761 6825 c0 -5 8 -26 19 -45 11 -19 19 -30 19 -25 0 6 -8 26 -19
45 -11 19 -19 31 -19 25z"/>
<path d="M10801 6735 c0 -5 8 -26 19 -45 11 -19 19 -30 19 -25 0 6 -8 26 -19
45 -11 19 -19 31 -19 25z"/>
<path d="M10208 6343 c6 -2 18 -2 25 0 6 3 1 5 -13 5 -14 0 -19 -2 -12 -5z"/>
<path d="M10258 6333 c6 -2 18 -2 25 0 6 3 1 5 -13 5 -14 0 -19 -2 -12 -5z"/>
<path d="M10318 6323 c6 -2 18 -2 25 0 6 3 1 5 -13 5 -14 0 -19 -2 -12 -5z"/>
<path d="M10368 6313 c6 -2 18 -2 25 0 6 3 1 5 -13 5 -14 0 -19 -2 -12 -5z"/>
<path d="M10418 6303 c6 -2 18 -2 25 0 6 3 1 5 -13 5 -14 0 -19 -2 -12 -5z"/>
<path d="M10478 6293 c6 -2 18 -2 25 0 6 3 1 5 -13 5 -14 0 -19 -2 -12 -5z"/>
<path d="M10528 6283 c6 -2 18 -2 25 0 6 3 1 5 -13 5 -14 0 -19 -2 -12 -5z"/>
<path d="M10578 6273 c6 -2 18 -2 25 0 6 3 1 5 -13 5 -14 0 -19 -2 -12 -5z"/>
<path d="M10638 6263 c6 -2 18 -2 25 0 6 3 1 5 -13 5 -14 0 -19 -2 -12 -5z"/>
<path d="M10688 6253 c6 -2 18 -2 25 0 6 3 1 5 -13 5 -14 0 -19 -2 -12 -5z"/>
<path d="M10738 6243 c6 -2 18 -2 25 0 6 3 1 5 -13 5 -14 0 -19 -2 -12 -5z"/>
<path d="M9775 5596 c17 -7 41 -16 55 -20 20 -5 19 -3 -5 8 -16 7 -41 16 -55
20 -20 5 -19 3 5 -8z"/>
<path d="M9920 5547 c0 -7 122 -48 127 -43 3 2 -20 12 -49 21 -29 10 -59 20
-65 23 -7 2 -13 2 -13 -1z"/>
<path d="M9675 4633 c-453 -58 -809 -367 -932 -809 -25 -91 -28 -114 -28 -274
0 -152 3 -187 24 -265 55 -210 141 -357 300 -515 216 -213 453 -310 761 -310
293 0 535 94 740 288 189 177 306 397 341 640 17 124 7 315 -24 434 -111 426
-474 746 -911 807 -74 11 -207 12 -271 4z"/>
</g>
</svg>
